<svg xmlns="http://www.w3.org/2000/svg" width="9.889" height="9.394" viewBox="0 0 9.889 9.394">
  <path id="star" d="M7.87,5.844a.544.544,0,0,0-.158.48l.44,2.432a.534.534,0,0,1-.222.534.544.544,0,0,1-.578.04L5.161,8.187a.559.559,0,0,0-.247-.065H4.78a.4.4,0,0,0-.133.044L2.457,9.314a.578.578,0,0,1-.351.054.55.55,0,0,1-.44-.628l.44-2.432a.553.553,0,0,0-.158-.484L.163,4.094A.534.534,0,0,1,.03,3.535a.555.555,0,0,1,.44-.371l2.457-.356a.55.55,0,0,0,.435-.3L4.444.287a.515.515,0,0,1,.1-.133L4.587.119a.332.332,0,0,1,.08-.064l.054-.02L4.8,0h.208a.553.553,0,0,1,.435.3l1.1,2.21a.549.549,0,0,0,.41.3l2.457.356a.56.56,0,0,1,.45.371.537.537,0,0,1-.143.559Z" transform="translate(0)" fill="#ff9529"/>
</svg>
